<svg width="11" height="11" viewBox="0 0 11 11" fill="none" xmlns="http://www.w3.org/2000/svg">
<path fill-rule="evenodd" clip-rule="evenodd" d="M5.18727 7.14466L1.375 8.25L2.32388 4.3958L3.5076 5.53217L5.41702 3.54319C5.48184 3.47567 5.5714 3.4375 5.665 3.4375C5.7586 3.4375 5.84816 3.47567 5.91298 3.54319L7.315 5.00363L9.37702 2.85569C9.5085 2.71874 9.7261 2.7143 9.86306 2.84577C10 2.97725 10.0045 3.19485 9.87298 3.33181L7.56298 5.73806C7.49815 5.80558 7.4086 5.84375 7.315 5.84375C7.2214 5.84375 7.13184 5.80558 7.06702 5.73806L5.665 4.27762L4.00355 6.00829L5.18727 7.14466Z" fill="#D00000"/>
</svg>
