<svg width="98" height="77" viewBox="0 0 98 77" fill="none" xmlns="http://www.w3.org/2000/svg">
<path d="M22.2272 46.2196C18.5933 46.2196 15.6483 42.843 15.6483 38.6779C15.6483 34.5126 18.5933 31.1392 22.2272 31.1392C23.508 31.1392 24.7038 31.5578 25.714 32.2834L22.2272 38.6779L28.7915 34.3343C28.0783 33.0322 27.0554 31.9101 25.8186 31.0587C24.2447 29.9788 22.0552 29.3105 19.6343 29.3105C16.1808 29.3105 13.1511 30.7487 11.4615 32.9023C10.2106 34.4943 9.46582 36.4981 9.46582 38.6778C9.46582 40.8591 10.2106 42.8642 11.4615 44.4574C13.1555 46.6137 16.1401 48.0434 19.5366 48.0434C22.9326 48.0434 25.9163 46.6126 27.6113 44.4574C27.7042 44.3387 27.794 44.2189 27.879 44.0947L27.6231 42.9952C26.4321 44.9433 24.4596 46.2196 22.2272 46.2196Z" fill="#4F5665"/>
<path d="M43.9896 47.5899L41.2345 35.8119C40.792 33.9086 39.2796 32.5096 37.479 32.5096C37.012 32.5096 36.5646 32.6053 36.1493 32.7783L30.2181 35.2499H36.3184L37.3608 39.7113C36.3496 38.7139 35.0326 38.1071 33.5906 38.1071C30.7271 38.1071 28.4087 40.3061 28.4087 43.0186C28.4087 45.7314 30.7271 47.9336 33.5906 47.9336C35.6521 47.9336 37.4751 46.7771 38.5996 45.0003L39.2044 47.5899H43.9896ZM35.5856 45.7605C34.2647 45.7605 33.194 44.5345 33.194 43.0186C33.194 41.5049 34.2647 40.2779 35.5856 40.2779C36.9065 40.2779 37.9783 41.5049 37.9783 43.0186C37.9783 44.5345 36.9065 45.7605 35.5856 45.7605Z" fill="#4F5665"/>
<path d="M55.2233 32.5117C54.8618 32.5117 54.5199 32.6033 54.2151 32.7673L50.4068 34.8012C50.2182 33.502 49.2334 32.5117 48.0454 32.5117C47.6859 32.5117 47.343 32.6033 47.0342 32.7673L42.3848 35.25H45.6538V47.5901H50.439V36.6228C50.439 35.8661 50.9734 35.2501 51.6358 35.2501C52.2943 35.2501 52.8326 35.8661 52.8326 36.6228V47.5901H57.6159V35.25C57.6159 33.7367 56.5442 32.5118 55.2233 32.5118" fill="#4F5665"/>
<path d="M85.2326 32.5117C84.8701 32.5117 84.5262 32.6033 84.2165 32.7673L80.4121 34.8012C80.2246 33.502 79.2398 32.5117 78.0518 32.5117C77.6922 32.5117 77.3493 32.6033 77.0396 32.7673L72.3921 35.25H75.6601V47.5901H80.4444V36.6228C80.4444 35.8661 80.9798 35.2501 81.6422 35.2501C82.3026 35.2501 82.837 35.8661 82.837 36.6228V47.5901H87.6242V35.25C87.6242 33.7367 86.5515 32.5118 85.2326 32.5118" fill="#4F5665"/>
<path d="M73.165 40.2778C73.165 44.5671 70.1315 48.0434 66.3896 48.0434C62.6449 48.0434 59.6094 44.5671 59.6094 40.2778C59.6094 35.9897 62.6449 32.5117 66.3896 32.5117C70.1315 32.5117 73.165 35.9898 73.165 40.2778ZM66.67 34.8687C66.4571 33.9549 65.6374 33.4124 64.8401 33.6581C64.0439 33.9027 63.5681 34.8426 63.7821 35.7563L66.1063 45.6867C66.3213 46.6014 67.139 47.1432 67.9362 46.9014C68.7334 46.654 69.2073 45.7146 68.9933 44.8011L66.67 34.8687Z" fill="#4F5665"/>
</svg>
