<svg width="98" height="77" viewBox="0 0 98 77" fill="none" xmlns="http://www.w3.org/2000/svg">
<path d="M49.0981 17.6286L42.6055 22.4362L49.0981 27.2439L42.6055 32.0516L36.1128 27.2038L42.6055 22.3962L36.1128 17.6286L42.6055 12.8209L49.0981 17.6286ZM42.5709 33.574L49.0636 28.7663L55.5563 33.574L49.0636 38.3816L42.5709 33.574ZM49.0981 27.2038L55.5908 22.3962L49.0981 17.6286L55.5563 12.8209L62.0489 17.6286L55.5563 22.4362L62.0489 27.2439L55.5563 32.0516L49.0981 27.2038Z" fill="#4F5665"/>
<path d="M12.2642 45.8774H17.0102C20.039 45.8774 22.5369 47.8812 22.5369 52.4613V53.4274C22.5369 58.0432 20.1951 60.1185 17.1039 60.1185H12.2642V45.8774ZM14.9182 48.4537V57.5065H16.9478C18.6651 57.5065 19.8204 56.2183 19.8204 53.3558V52.6044C19.8204 49.7419 18.6027 48.4537 16.8541 48.4537H14.9182ZM23.942 48.5968H26.0652L26.4087 51.2805C26.8146 49.4556 27.845 48.4895 29.7185 48.4895H30.3742V51.5667H29.2813C27.1269 51.5667 26.596 52.4255 26.596 54.8586V60.1543H23.9732V48.5968H23.942ZM30.905 54.6082V54.2861C30.905 50.4217 33.0595 48.3106 35.9945 48.3106C38.992 48.3106 41.0841 50.4217 41.0841 54.2861V54.6082C41.0841 58.401 39.0545 60.4406 35.9945 60.4406C32.7472 60.4048 30.905 58.401 30.905 54.6082ZM38.3988 54.5724V54.2861C38.3988 52.1392 37.4621 50.8511 35.9633 50.8511C34.4958 50.8511 33.5278 52.0319 33.5278 54.2861V54.5724C33.5278 56.6477 34.4645 57.8285 35.9633 57.8285C37.4621 57.7927 38.3988 56.6477 38.3988 54.5724ZM42.4579 48.5968H44.6436L44.8934 50.7795C45.4242 49.3125 46.5483 48.3106 48.2032 48.3106C50.7635 48.3106 52.4496 50.4217 52.4496 54.3219V54.6439C52.4496 58.4368 50.5762 60.4406 48.2032 60.4406C46.6107 60.4406 45.5179 59.6176 44.9871 58.2937V64.1261H42.4267L42.4579 48.5968ZM49.7956 54.5724V54.3219C49.7956 52.0319 48.7652 50.8869 47.3913 50.8869C45.9238 50.8869 44.9559 52.175 44.9559 54.3219V54.5366C44.9559 56.5761 45.8926 57.8643 47.3601 57.8643C48.8589 57.8285 49.7956 56.7193 49.7956 54.5724ZM56.3214 58.0074L56.1029 60.1185H53.8547V44.7324H56.4151V50.6364C56.9772 49.1336 58.1012 48.3106 59.6937 48.3106C62.0979 48.3464 63.8777 50.2428 63.8777 54.0714V54.4292C63.8777 58.2579 62.1916 60.4406 59.6312 60.4406C57.9451 60.4048 56.8523 59.5102 56.3214 58.0074ZM61.1924 54.4292V54.143C61.1924 52.0319 60.1932 50.8511 58.7882 50.8511C57.3518 50.8511 56.3527 52.175 56.3527 54.1788V54.4292C56.3527 56.5761 57.3206 57.8285 58.7569 57.8285C60.2869 57.8285 61.1924 56.7193 61.1924 54.4292ZM65.0018 54.6082V54.2861C65.0018 50.4217 67.1562 48.3106 70.0913 48.3106C73.0888 48.3106 75.1808 50.4217 75.1808 54.2861V54.6082C75.1808 58.401 73.12 60.4406 70.0913 60.4406C66.844 60.4048 65.0018 58.401 65.0018 54.6082ZM72.5268 54.5724V54.2861C72.5268 52.1392 71.5901 50.8511 70.0913 50.8511C68.6238 50.8511 67.6558 52.0319 67.6558 54.2861V54.5724C67.6558 56.6477 68.5925 57.8285 70.0913 57.8285C71.5901 57.7927 72.5268 56.6477 72.5268 54.5724ZM78.6155 54.143L75.0872 48.5968H78.1159L80.1455 52.0677L82.2063 48.5968H85.2038L81.613 54.1072L85.3911 60.1185H82.4248L80.1143 56.2899L77.8661 60.1185H74.7749L78.6155 54.143Z" fill="#4F5665"/>
</svg>
