<svg width="98" height="77" viewBox="0 0 98 77" fill="none" xmlns="http://www.w3.org/2000/svg">
<path d="M59.775 17.9345C61.8682 16.7632 62.9055 16.9169 62.9288 18.1042C62.9568 19.6465 62.7567 21.6975 62.6124 23.1815C61.8356 31.2475 60.5378 37.8385 60.4401 46.1202C63.8591 36.0355 66.7245 29.0263 70.4179 20.3938C71.5902 17.6431 72.339 18.1572 73.3019 17.6696C77.0511 15.7669 77.1907 16.9329 76.7022 19.2596C74.8834 27.8773 70.2271 55.0108 69.5155 59.1889C69.3107 60.3977 68.1572 59.8853 67.8595 59.4125C66.5245 57.3085 65.0174 57.2756 65.1847 55.8764C66.0221 48.9106 69.0363 31.4336 69.8225 27.3155C65.8173 36.6709 61.6635 48.3663 59.5284 54.9977C59.0771 56.4058 58.2538 56.3025 57.7422 55.2722C57.0211 53.8249 55.621 53.0859 55.3883 51.3756C54.6581 45.938 56.2257 35.5733 56.4442 29.0162C54.2627 36.1791 50.6019 50.0856 48.997 56.3687C48.3365 58.9683 46.1316 58.5443 46.7177 56.0105C49.1551 45.4662 54.4069 26.8173 56.6769 20.1128C57.212 18.5334 58.6121 18.5864 59.775 17.9345Z" fill="#4F5665"/>
<path d="M46.4796 16.6415C45.7726 16.4454 43.7212 17.7068 42.4606 17.9558C42.0606 18.0353 41.6791 18.5176 41.5442 18.8622C39.5254 24.1462 37.7159 29.1833 36.1483 33.7719C34.1434 34.162 31.7991 34.6756 29.1756 35.3471C31.0548 29.8547 32.9527 24.4376 34.804 19.2278C35.7157 16.6626 33.3155 16.4188 32.3852 19.0158C31.1757 22.3919 28.9103 28.7174 26.4031 36.0901C24.561 36.6047 22.6074 37.193 20.5653 37.8651C19.0814 38.3532 19.021 38.8037 19.6629 39.8176C20.0164 40.3822 20.7467 40.3253 21.0816 40.7276C21.9468 41.7701 22.4725 43.0171 24.0214 43.2059C22.6398 47.4166 21.2583 51.7589 20.007 55.94C19.2209 58.5645 21.4583 59.1014 22.3189 56.3242C23.7051 51.8473 25.1657 47.3164 26.6682 42.7987C27.9195 42.4674 30.9477 41.7243 33.7433 41.0332C31.5245 47.9623 30.0638 53.2247 29.5103 55.7862C29.408 56.279 29.5801 56.5526 29.6731 56.7534C30.422 57.9952 31.1337 58.0461 32.0966 59.5814C32.3572 60.0001 33.2317 60.2259 33.5293 59.1951C35.5854 52.1191 37.7019 45.4799 39.6741 39.528C40.4928 39.3239 41.9673 38.9185 42.8698 37.3841C44.4745 34.661 44.935 35.2133 45.3212 34.3854C45.805 33.3461 45.484 32.3704 43.7723 32.6115C43.7723 32.6115 43.1257 32.6639 41.9302 32.8192C43.828 27.2516 45.4886 22.5293 46.6841 18.9307C47.0937 17.7121 47.1448 16.8217 46.4796 16.6415Z" fill="#4F5665"/>
<path d="M43.6798 52.7524C44.1217 54.0249 45.5032 53.6395 44.9776 52.1037C44.4425 50.5391 43.1122 45.829 42.7633 44.3116C42.2889 42.2669 44.3449 42.8261 43.3029 44.1628C42.4099 45.3123 41.8144 45.7728 40.1631 47.9585C38.5676 50.0685 39.0002 52.8065 40.7073 53.4112C42.6331 54.0938 44.331 51.676 45.3822 49.9022C46.4009 48.1844 45.4147 47.1769 44.3868 48.1924C43.7262 48.8453 42.9633 49.848 42.1911 50.3887C41.5632 50.8238 41.0701 50.3563 41.9074 49.0431C42.8796 47.5225 43.968 46.2484 44.7774 44.8116C46.4288 41.8833 43.1633 40.1954 41.7585 42.0975C41.0049 43.1114 41.1957 44.1067 41.4003 44.961C41.7307 46.3294 42.9587 50.6977 43.6798 52.7524Z" fill="#4F5665"/>
</svg>
