<svg width="24" height="24" viewBox="0 0 24 24" fill="none" xmlns="http://www.w3.org/2000/svg">
<mask id="mask0_42_1690" style="mask-type:luminance" maskUnits="userSpaceOnUse" x="2" y="8" width="20" height="15">
<path fill-rule="evenodd" clip-rule="evenodd" d="M2 8.7941H21.9996V22.5381H2V8.7941Z" fill="white"/>
</mask>
<g mask="url(#mask0_42_1690)">
<path fill-rule="evenodd" clip-rule="evenodd" d="M17.565 22.5381H6.435C3.99 22.5381 2 20.5491 2 18.1031V13.2281C2 10.7831 3.99 8.7941 6.435 8.7941H7.368C7.782 8.7941 8.118 9.1301 8.118 9.5441C8.118 9.9581 7.782 10.2941 7.368 10.2941H6.435C4.816 10.2941 3.5 11.6101 3.5 13.2281V18.1031C3.5 19.7221 4.816 21.0381 6.435 21.0381H17.565C19.183 21.0381 20.5 19.7221 20.5 18.1031V13.2191C20.5 11.6061 19.188 10.2941 17.576 10.2941H16.633C16.219 10.2941 15.883 9.9581 15.883 9.5441C15.883 9.1301 16.219 8.7941 16.633 8.7941H17.576C20.015 8.7941 22 10.7791 22 13.2191V18.1031C22 20.5491 20.01 22.5381 17.565 22.5381Z" fill="#4F5665"/>
</g>
<mask id="mask1_42_1690" style="mask-type:luminance" maskUnits="userSpaceOnUse" x="11" y="2" width="2" height="14">
<path fill-rule="evenodd" clip-rule="evenodd" d="M11.25 2.00009H12.75V15.541H11.25V2.00009Z" fill="white"/>
</mask>
<g mask="url(#mask1_42_1690)">
<path fill-rule="evenodd" clip-rule="evenodd" d="M12 15.541C11.586 15.541 11.25 15.205 11.25 14.791V2.75C11.25 2.336 11.586 2 12 2C12.414 2 12.75 2.336 12.75 2.75V14.791C12.75 15.205 12.414 15.541 12 15.541Z" fill="#4F5665"/>
</g>
<path fill-rule="evenodd" clip-rule="evenodd" d="M9.08471 6.42868C8.89371 6.42868 8.70171 6.35568 8.55571 6.20968C8.26271 5.91768 8.26071 5.44368 8.55371 5.14968L11.4687 2.22168C11.7497 1.93868 12.2497 1.93868 12.5307 2.22168L15.4467 5.14968C15.7387 5.44368 15.7377 5.91768 15.4447 6.20968C15.1507 6.50168 14.6767 6.50168 14.3847 6.20768L11.9997 3.81368L9.61571 6.20768C9.46971 6.35568 9.27671 6.42868 9.08471 6.42868Z" fill="#4F5665"/>
</svg>
