<svg width="98" height="77" viewBox="0 0 98 77" fill="none" xmlns="http://www.w3.org/2000/svg">
<path d="M50.5468 31.0376C50.5468 32.0978 49.7731 32.9653 48.8273 32.9653C47.8816 32.9653 47.1078 32.0978 47.1078 31.0376C47.1078 29.9774 47.8386 29.11 48.8273 29.11C49.816 29.1341 50.5468 30.0015 50.5468 31.0376ZM43.4969 34.8929C43.4969 35.0616 43.4969 35.3748 43.4969 35.3748C43.4969 35.3748 42.6801 34.1941 40.9391 34.1941C38.0804 34.1941 35.8236 36.6519 35.8236 40.0252C35.8236 43.3986 38.0374 45.8564 40.9391 45.8564C42.7016 45.8564 43.4969 44.6516 43.4969 44.6516V45.1576C43.4969 45.3985 43.6473 45.5672 43.8623 45.5672H45.9901V34.4833C45.9901 34.4833 44.0342 34.4833 43.8623 34.4833C43.6473 34.4833 43.4969 34.7002 43.4969 34.8929ZM43.4969 42.0011C43.11 42.6517 42.3147 43.2059 41.369 43.2059C39.6925 43.2059 38.4028 42.0252 38.4028 40.0252C38.4028 38.0253 39.6925 36.8446 41.369 36.8446C42.2932 36.8446 43.1315 37.4229 43.4969 38.0494V42.0011ZM47.5807 34.4833H50.117V45.5672H47.5807V34.4833ZM85.3023 34.1941C83.5613 34.1941 82.7446 35.3748 82.7446 35.3748V29.1582H80.2083V45.5913C80.2083 45.5913 82.1642 45.5913 82.3362 45.5913C82.5511 45.5913 82.7016 45.3744 82.7016 45.1817V44.6757C82.7016 44.6757 83.5183 45.8804 85.2593 45.8804C88.118 45.8804 90.3749 43.3986 90.3749 40.0493C90.3964 36.676 88.1395 34.1941 85.3023 34.1941ZM84.8939 43.1818C83.9267 43.1818 83.1529 42.6276 82.7661 41.977V38.0253C83.1529 37.447 84.0127 36.8206 84.8939 36.8206C86.5705 36.8206 87.8601 38.0012 87.8601 40.0012C87.8601 42.0011 86.5705 43.1818 84.8939 43.1818ZM78.9187 38.9891V45.5913H76.3824V39.3265C76.3824 37.4952 75.8665 36.7483 74.4265 36.7483C73.6527 36.7483 72.8789 37.182 72.3845 37.8326V45.5672H69.8483V34.4833H71.8472C72.0621 34.4833 72.2126 34.7002 72.2126 34.8929V35.3748C72.9434 34.5074 73.9321 34.1941 74.8993 34.1941C75.9955 34.1941 76.9197 34.5556 77.672 35.2543C78.5748 36.0736 78.9187 37.1338 78.9187 38.9891ZM63.7225 34.1941C61.9815 34.1941 61.1648 35.3748 61.1648 35.3748V29.1582H58.6285V45.5913C58.6285 45.5913 60.5844 45.5913 60.7564 45.5913C60.9713 45.5913 61.1218 45.3744 61.1218 45.1817V44.6757C61.1218 44.6757 61.9385 45.8804 63.6796 45.8804C66.5382 45.8804 68.7951 43.3986 68.7951 40.0493C68.8381 36.676 66.6027 34.1941 63.7225 34.1941ZM63.3142 43.1818C62.3469 43.1818 61.5732 42.6276 61.1863 41.977V38.0253C61.5732 37.447 62.4329 36.8206 63.3142 36.8206C64.9907 36.8206 66.2803 38.0012 66.2803 40.0012C66.2803 42.0011 64.9907 43.1818 63.3142 43.1818ZM56.4576 34.1941C57.2314 34.1941 57.6183 34.3387 57.6183 34.3387V36.9651C57.6183 36.9651 55.5119 36.17 54.2008 37.8567V45.6154H51.6645V34.4833C51.6645 34.4833 53.6204 34.4833 53.7924 34.4833C54.0073 34.4833 54.1578 34.7002 54.1578 34.8929V35.3748C54.6521 34.7483 55.6838 34.1941 56.4576 34.1941ZM30.2352 44.5793C30.1062 44.2179 29.9772 43.8323 29.8483 43.5191C29.6333 42.989 29.4184 42.483 29.2465 42.0252L29.225 42.0011C27.4195 37.5675 25.4635 33.0858 23.4001 28.6763L23.3142 28.5076C23.0992 28.0739 22.8843 27.592 22.6908 27.1101C22.4329 26.58 22.175 26.0258 21.7451 25.4957C20.9069 24.315 19.7032 23.6644 18.4136 23.6644C17.1025 23.6644 15.9203 24.315 15.039 25.4234C14.6522 25.9535 14.3512 26.5077 14.0933 27.0378C13.8784 27.5197 13.6634 27.9775 13.47 28.4353L13.384 28.604C11.3636 33.0376 9.38618 37.5193 7.5592 41.9288L7.53771 41.977C7.34426 42.4589 7.15082 42.9408 6.93588 43.4709C6.80692 43.7841 6.67796 44.1456 6.54899 44.5311C6.20509 45.6154 6.09762 46.6515 6.22659 47.7117C6.50601 49.9285 7.83862 51.7838 9.6441 52.6031C10.3319 52.9163 11.0412 53.085 11.772 53.085C11.9869 53.085 12.2449 53.0609 12.4598 53.0368C13.3195 52.9163 14.2223 52.6031 15.082 52.0248C16.1567 51.3501 17.1884 50.3622 18.3491 48.9647C19.5098 50.3863 20.563 51.3501 21.6162 52.0248C22.4759 52.579 23.3786 52.9163 24.2384 53.0368C24.4533 53.0609 24.7113 53.085 24.9262 53.085C25.657 53.085 26.4093 52.9404 27.0541 52.6031C28.9026 51.7838 30.1922 49.8803 30.4716 47.7117C30.6865 46.6997 30.5791 45.6636 30.2352 44.5793ZM18.3706 46.0973C16.952 44.0974 16.0278 42.1938 15.7054 40.6035C15.5764 39.9289 15.5549 39.3265 15.6194 38.7964C15.6624 38.3145 15.8343 37.9048 16.0493 37.5675C16.5436 36.7724 17.3819 36.2664 18.3706 36.2664C19.3593 36.2664 20.2191 36.7483 20.6919 37.5675C20.9069 37.9289 21.0573 38.3386 21.1218 38.7964C21.2078 39.3265 21.1648 39.953 21.0358 40.6035C20.7134 42.1938 19.7892 44.0733 18.3706 46.0973ZM28.8596 47.4948C28.6661 49.037 27.7634 50.3622 26.4738 50.9405C25.8504 51.2296 25.1626 51.326 24.4748 51.2296C23.8085 51.1333 23.1637 50.9164 22.4759 50.4586C21.5302 49.8803 20.5845 48.9647 19.4668 47.5912C21.2078 45.2058 22.261 43.0131 22.6479 41.0614C22.8413 40.1457 22.8628 39.3265 22.7768 38.5554C22.6694 37.8085 22.4329 37.1338 22.0675 36.5555C21.2508 35.2303 19.8752 34.4592 18.3491 34.4592C16.823 34.4592 15.4474 35.2543 14.6307 36.5555C14.2653 37.1338 14.0288 37.8326 13.9214 38.5554C13.8139 39.3265 13.8354 40.1698 14.0503 41.0614C14.4372 43.0131 15.5334 45.2299 17.2314 47.6153C16.1567 48.9647 15.1895 49.8803 14.2223 50.4827C13.5345 50.9164 12.8897 51.1574 12.2234 51.2537C11.5141 51.3501 10.8263 51.2296 10.2244 50.9646C8.93481 50.3863 8.01057 49.037 7.83862 47.5189C7.75265 46.772 7.81713 46.0491 8.07505 45.2299C8.16103 44.9407 8.28999 44.6516 8.41895 44.2901C8.6124 43.8082 8.80584 43.3263 9.02078 42.8203L9.04227 42.7721C10.8478 38.3868 12.8037 33.8809 14.8241 29.5196L14.9101 29.351C15.125 28.9172 15.34 28.4353 15.5334 28.0016C15.7483 27.5197 15.9848 27.086 16.2642 26.7005C16.823 26.0017 17.5538 25.6162 18.3706 25.6162C19.1874 25.6162 19.9181 26.0017 20.477 26.7005C20.7564 27.086 20.9928 27.5197 21.2078 28.0016C21.4227 28.4353 21.6376 28.9172 21.8311 29.351L21.9171 29.5196C23.916 33.905 25.8719 38.4109 27.6774 42.7962V42.8203C27.8923 43.3022 28.0643 43.8323 28.2792 44.2901C28.4082 44.6516 28.5372 44.9407 28.6231 45.2299C28.8811 45.9768 28.967 46.7238 28.8596 47.4948Z" fill="#4F5665"/>
</svg>
