<svg width="11" height="11" viewBox="0 0 11 11" fill="none" xmlns="http://www.w3.org/2000/svg">
<path fill-rule="evenodd" clip-rule="evenodd" d="M5.81273 3.85534L9.625 2.75L8.67612 6.6042L7.4924 5.46783L5.58298 7.45681C5.51816 7.52433 5.4286 7.5625 5.335 7.5625C5.2414 7.5625 5.15184 7.52433 5.08702 7.45681L3.685 5.99637L1.62298 8.14431C1.4915 8.28126 1.2739 8.2857 1.13694 8.15423C0.999989 8.02275 0.995548 7.80515 1.12702 7.66819L3.43702 5.26194C3.50185 5.19442 3.5914 5.15625 3.685 5.15625C3.7786 5.15625 3.86816 5.19442 3.93298 5.26194L5.335 6.72238L6.99645 4.99171L5.81273 3.85534Z" fill="#00A700"/>
</svg>
