<svg width="98" height="77" viewBox="0 0 98 77" fill="none" xmlns="http://www.w3.org/2000/svg">
<path d="M47.5878 10.4193H49.1144C56.54 10.8961 61.8344 14.107 65.7596 18.6068C69.6849 23.1067 72.5864 29.0416 72.9741 37.5333V39.2156C72.5971 47.843 69.6444 53.5371 65.7596 58.1701C61.6788 62.5708 56.6622 65.905 49.0898 66.3293H47.5878C40.1631 65.8515 34.8677 62.642 30.9426 58.1419C27.0174 53.642 24.1158 47.7072 23.728 39.2156V37.5333C23.7474 37.5271 23.7568 37.5098 23.7527 37.4772C24.1239 29.0179 27.0414 23.0213 30.9427 18.5788C34.8619 14.1155 40.2112 10.8817 47.5878 10.4193ZM42.7616 14.4289C41.2986 14.875 39.9866 15.4416 38.7974 16.1112C35.1776 18.1495 32.1926 21.0655 30.1054 24.8034C28.0682 28.4518 26.3043 33.1452 26.5598 39.2996C26.7208 43.1796 27.4983 46.4434 28.7265 49.2255C31.1519 54.7188 34.8445 58.7663 39.9547 61.2264C42.4818 62.4429 45.613 63.2962 49.1391 63.1049C52.5214 62.9215 55.4522 62.0557 57.8804 60.6655C62.6393 57.9407 66.3897 53.7366 68.4684 47.9357C69.5197 45.0014 70.3147 41.6115 70.1428 37.5051C69.8175 29.7261 67.0387 24.4515 63.3716 20.4292C61.557 18.439 59.372 16.7461 56.7972 15.5224C54.299 14.3352 51.0467 13.455 47.5635 13.6438C45.8511 13.7366 44.2357 13.9794 42.7616 14.4289Z" fill="#4F5665"/>
<path d="M46.0861 31.1122C46.8663 31.7005 47.6642 32.2686 48.4007 32.9067C46.737 34.0963 45.1059 35.3233 43.4515 36.5237C43.7027 36.7424 43.9883 36.9218 44.2394 37.1405C45.9076 35.9371 47.5762 34.7344 49.238 33.5235C49.9833 34.0488 50.717 34.5872 51.4049 35.1779C49.7397 36.3755 48.1304 37.6365 46.4802 38.8509C46.7247 39.0773 47.0245 39.2407 47.2926 39.4398C48.9983 38.251 50.6614 37.0138 52.3404 35.7948V31.8132H56.0339V39.7483C57.0761 39.8136 58.2254 39.7576 59.3089 39.7761V43.5055H52.3404V39.72C50.293 41.1365 48.1949 42.7383 46.1354 44.2344C43.9907 42.6486 41.9237 40.9738 39.7826 39.3837C39.1624 41.6224 37.6893 43.3065 35.2519 43.5055C33.7317 43.6293 32.0044 43.413 30.2534 43.5055V31.8132C32.4424 31.9783 34.8461 31.4798 36.5815 32.0935C38.116 32.6362 39.2039 34.0304 39.7086 35.7667C41.8512 34.2343 43.9595 32.6629 46.0861 31.1122ZM33.7744 35.5704V39.7763C34.6542 39.7812 35.3234 39.8394 35.8427 39.3838C36.6153 38.7062 36.7709 37.0263 36.0889 36.1312C35.6338 35.5339 34.8653 35.4086 33.7989 35.4863C33.7705 35.491 33.7723 35.5307 33.7744 35.5704ZM60.269 31.8132H63.9624V39.7763H67.2127V43.5056H60.2441V31.8973C60.2422 31.8575 60.2402 31.8179 60.269 31.8132Z" fill="#4F5665"/>
</svg>
