<svg width="98" height="77" viewBox="0 0 98 77" fill="none" xmlns="http://www.w3.org/2000/svg">
<path d="M85.3238 53.4093V51.37H83.1012V48.1996L83.0263 48.2259L80.9387 48.9536L80.8976 48.9679V51.37H77.6026V50.032C77.6026 49.4088 77.7249 48.932 77.9659 48.614C78.2052 48.2998 78.5476 48.14 78.9841 48.14C79.298 48.14 79.623 48.2243 79.95 48.3905L80.032 48.4321V46.2845L79.9935 46.2683C79.6884 46.1434 79.2733 46.0804 78.759 46.0804C78.1107 46.0804 77.5216 46.2411 77.008 46.5597C76.4939 46.8787 76.0896 47.3341 75.8064 47.9132C75.5241 48.4916 75.3808 49.1595 75.3808 49.8988V51.37H73.8332V53.4093H75.3808V62.0003H77.6026V53.4093H80.8976V58.8688C80.8976 61.1173 81.8284 62.2568 83.6642 62.2568C83.9659 62.2568 84.2833 62.2164 84.6076 62.1375C84.9375 62.0566 85.1622 61.9757 85.2945 61.8893L85.3238 61.8697V59.8115L85.2335 59.8796C85.1129 59.9713 84.9627 60.046 84.7866 60.1016C84.6098 60.1582 84.4621 60.1867 84.3478 60.1867C83.9177 60.1867 83.5996 60.0546 83.402 59.7941C83.2024 59.5312 83.1012 59.0713 83.1012 58.4281V53.4093H85.3238ZM68.8717 60.1869C68.0652 60.1869 67.4295 59.8822 66.9814 59.2821C66.5306 58.6789 66.3022 57.8189 66.3022 56.7264C66.3022 55.5992 66.5306 54.717 66.9817 54.1031C67.43 53.4933 68.0597 53.1839 68.8536 53.1839C69.6239 53.1839 70.2372 53.4795 70.6764 54.0629C71.1179 54.6493 71.3419 55.5245 71.3419 56.6648C71.3419 57.8192 71.1312 58.7059 70.7157 59.299C70.3032 59.8878 69.6829 60.1869 68.8717 60.1869ZM68.9706 51.1139C67.4321 51.1139 66.2101 51.6275 65.3389 52.6406C64.4682 53.6537 64.0267 55.0557 64.0267 56.8081C64.0267 58.4725 64.4577 59.8112 65.3076 60.7866C66.1576 61.7623 67.3144 62.2566 68.7455 62.2566C70.2369 62.2566 71.4346 61.7358 72.3055 60.7087C73.1763 59.6827 73.6174 58.294 73.6174 56.5825C73.6174 54.8921 73.2034 53.5434 72.3866 52.5745C71.5693 51.6052 70.4198 51.1139 68.9706 51.1139ZM60.4445 51.1138C59.398 51.1138 58.5324 51.4188 57.871 52.0202C57.2058 52.6251 56.8683 53.4185 56.8683 54.3786C56.8683 54.8776 56.9412 55.321 57.0846 55.6969C57.2288 56.0742 57.452 56.4062 57.7485 56.685C58.0428 56.9615 58.4969 57.2512 59.099 57.5457C59.6049 57.783 59.9823 57.9838 60.222 58.1419C60.4563 58.2969 60.6227 58.4528 60.7166 58.6045C60.8078 58.753 60.8542 58.9562 60.8542 59.2071C60.8542 59.9212 60.3848 60.2687 59.4189 60.2687C59.0607 60.2687 58.652 60.1836 58.2043 60.0155C57.7564 59.8476 57.3378 59.6063 56.9605 59.2969L56.8683 59.2216V61.6586L56.9022 61.6766C57.2166 61.8419 57.6129 61.9813 58.08 62.0911C58.5463 62.2008 58.9699 62.2568 59.3379 62.2568C60.4736 62.2568 61.388 61.9503 62.0553 61.3454C62.7268 60.7363 63.0672 59.9242 63.0672 58.9308C63.0672 58.2143 62.884 57.5997 62.5228 57.1042C62.1642 56.6126 61.5418 56.1614 60.6734 55.7625C59.9817 55.4462 59.5385 55.1836 59.3558 54.9821C59.1796 54.7873 59.0901 54.5119 59.0901 54.1632C59.0901 53.854 59.2005 53.6064 59.4273 53.4058C59.6558 53.2042 59.9738 53.1017 60.3728 53.1017C60.743 53.1017 61.1217 53.1683 61.4983 53.2988C61.8748 53.4293 62.2053 53.6042 62.4813 53.8182L62.572 53.8888V51.577L62.5372 51.5599C62.2826 51.4355 61.9469 51.3291 61.5392 51.2427C61.1331 51.1572 60.7647 51.1138 60.4445 51.1138ZM51.0763 60.1869C50.2701 60.1869 49.6341 59.8822 49.1862 59.2821C48.7353 58.6789 48.5072 57.8192 48.5072 56.7264C48.5072 55.5992 48.7355 54.717 49.1867 54.1031C49.6346 53.4933 50.2642 53.1839 51.0584 53.1839C51.8286 53.1839 52.4418 53.4795 52.8811 54.0629C53.3227 54.6493 53.5466 55.5245 53.5466 56.6648C53.5466 57.8192 53.3358 58.7059 52.9204 59.299C52.5079 59.8878 51.8878 60.1869 51.0763 60.1869ZM51.1755 51.1139C49.6366 51.1139 48.4146 51.6275 47.5438 52.6406C46.6731 53.6537 46.2313 55.0557 46.2313 56.8081C46.2313 58.4732 46.6625 59.8112 47.5125 60.7866C48.3625 61.7623 49.5192 62.2566 50.9504 62.2566C52.4414 62.2566 53.6394 61.7358 54.5103 60.7087C55.3809 59.6827 55.8223 58.294 55.8223 56.5825C55.8223 54.8921 55.4082 53.5434 54.5912 52.5745C53.7737 51.6052 52.6244 51.1139 51.1755 51.1139ZM42.8587 53.2109V51.37H40.6641V62.0001H42.8587V56.5624C42.8587 55.6377 43.0427 54.8782 43.4058 54.3044C43.7642 53.7375 44.242 53.4502 44.8252 53.4502C45.0228 53.4502 45.2447 53.4874 45.485 53.5609C45.7229 53.6339 45.8952 53.7131 45.9968 53.7966L46.089 53.8727V51.3518L46.0534 51.3344C45.849 51.2354 45.56 51.1855 45.1941 51.1855C44.6427 51.1855 44.1491 51.3874 43.7263 51.7849C43.3553 52.1343 43.087 52.6134 42.882 53.2109H42.8587ZM36.7339 51.1138C35.7271 51.1138 34.829 51.3599 34.065 51.8448C33.2996 52.3308 32.7076 53.0247 32.3049 53.907C31.9039 54.7873 31.7004 55.8155 31.7004 56.962C31.7004 57.9664 31.8978 58.8882 32.2879 59.7004C32.6782 60.5141 33.2308 61.1506 33.9301 61.5922C34.6285 62.0332 35.4357 62.2568 36.3294 62.2568C37.3723 62.2568 38.2628 62.0191 38.9768 61.5507L39.0056 61.5317V59.2409L38.9134 59.3176C38.59 59.586 38.2286 59.8002 37.8397 59.9546C37.4518 60.1089 37.0981 60.1868 36.7881 60.1868C35.927 60.1868 35.2357 59.8797 34.7339 59.2746C34.2309 58.6684 33.9759 57.8175 33.9759 56.7465C33.9759 55.6688 34.2419 54.796 34.766 54.1519C35.2884 53.5097 35.981 53.184 36.8243 53.184C37.5457 53.184 38.2486 53.4623 38.9137 54.0119L39.0056 54.0881V51.6743L38.9759 51.6552C38.7256 51.4956 38.3844 51.3638 37.9606 51.2639C37.5387 51.1642 37.1261 51.1138 36.7339 51.1138ZM30.1888 51.37H27.9942V62.0001H30.1888V51.37ZM29.1139 46.8416C28.7527 46.8416 28.4377 46.9816 28.1789 47.2593C27.919 47.5377 27.787 47.8883 27.787 48.3019C27.787 48.7091 27.9174 49.0531 28.1747 49.3242C28.4304 49.5944 28.7464 49.7314 29.1139 49.7314C29.4812 49.7314 29.7985 49.5944 30.0573 49.3246C30.3178 49.0531 30.4499 48.7091 30.4499 48.3019C30.4499 47.9027 30.3214 47.5557 30.068 47.2705C29.815 46.9858 29.4939 46.8416 29.1139 46.8416ZM23.6381 50.5858V62H25.8779V47.1671H22.778L18.8378 58.1845L15.0142 47.1671H11.7881V62H13.8928V50.5847H13.9652L18.0029 62H19.5912L23.5659 50.5858H23.6381Z" fill="#4F5665"/>
<path d="M46.5674 25.6758H36.2432V13.9127H46.5674V25.6758Z" fill="#4F5665"/>
<path d="M57.9671 25.6758H47.6431V13.9127H57.9671V25.6758Z" fill="#4F5665"/>
<path d="M46.5671 38.6685H36.2432V26.9054H46.5671V38.6685Z" fill="#4F5665"/>
<path d="M57.9671 38.6685H47.6431V26.9054H57.9671V38.6685Z" fill="#4F5665"/>
</svg>
