<svg width="16" height="16" viewBox="0 0 16 16" fill="none" xmlns="http://www.w3.org/2000/svg">
<path fill-rule="evenodd" clip-rule="evenodd" d="M7.12583 7.99932C7.12583 8.68132 6.57316 9.23398 5.89116 9.23398C5.20916 9.23398 4.65649 8.68132 4.65649 7.99932C4.65649 7.31732 5.20916 6.76465 5.89116 6.76465H5.89316C6.57449 6.76532 7.12583 7.31798 7.12583 7.99932Z" stroke="#4F5665" stroke-linecap="round" stroke-linejoin="round"/>
<path d="M7.12787 8H11.3399V9.23467" stroke="#4F5665" stroke-linecap="round" stroke-linejoin="round"/>
<path d="M9.45467 9.23467V8" stroke="#4F5665" stroke-linecap="round" stroke-linejoin="round"/>
<path fill-rule="evenodd" clip-rule="evenodd" d="M1.83325 7.99967C1.83325 3.37501 3.37525 1.83301 7.99992 1.83301C12.6246 1.83301 14.1666 3.37501 14.1666 7.99967C14.1666 12.6243 12.6246 14.1663 7.99992 14.1663C3.37525 14.1663 1.83325 12.6243 1.83325 7.99967Z" stroke="#4F5665" stroke-linecap="round" stroke-linejoin="round"/>
</svg>
