<svg width="16" height="16" viewBox="0 0 16 16" fill="none" xmlns="http://www.w3.org/2000/svg">
<path d="M4.00008 7.33301C3.86823 7.33301 3.73933 7.37211 3.6297 7.44536C3.52007 7.51862 3.43462 7.62273 3.38416 7.74455C3.3337 7.86637 3.3205 8.00041 3.34622 8.12973C3.37195 8.25906 3.43544 8.37784 3.52868 8.47108C3.62191 8.56431 3.7407 8.62781 3.87002 8.65353C3.99934 8.67926 4.13339 8.66605 4.2552 8.61559C4.37702 8.56514 4.48114 8.47969 4.55439 8.37006C4.62765 8.26042 4.66675 8.13153 4.66675 7.99967C4.66675 7.82286 4.59651 7.65329 4.47149 7.52827C4.34646 7.40325 4.17689 7.33301 4.00008 7.33301ZM12.0001 7.33301C11.8682 7.33301 11.7393 7.37211 11.6297 7.44536C11.5201 7.51862 11.4346 7.62273 11.3842 7.74455C11.3337 7.86637 11.3205 8.00041 11.3462 8.12973C11.3719 8.25906 11.4354 8.37784 11.5287 8.47108C11.6219 8.56431 11.7407 8.62781 11.87 8.65353C11.9993 8.67926 12.1334 8.66605 12.2552 8.61559C12.377 8.56514 12.4811 8.47969 12.5544 8.37006C12.6276 8.26042 12.6667 8.13153 12.6667 7.99967C12.6667 7.82286 12.5965 7.65329 12.4715 7.52827C12.3465 7.40325 12.1769 7.33301 12.0001 7.33301ZM13.3334 3.33301H2.66675C2.13631 3.33301 1.62761 3.54372 1.25253 3.91879C0.877462 4.29387 0.666748 4.80257 0.666748 5.33301V10.6663C0.666748 11.1968 0.877462 11.7055 1.25253 12.0806C1.62761 12.4556 2.13631 12.6663 2.66675 12.6663H13.3334C13.8638 12.6663 14.3726 12.4556 14.7476 12.0806C15.1227 11.7055 15.3334 11.1968 15.3334 10.6663V5.33301C15.3334 4.80257 15.1227 4.29387 14.7476 3.91879C14.3726 3.54372 13.8638 3.33301 13.3334 3.33301ZM14.0001 10.6663C14.0001 10.8432 13.9298 11.0127 13.8048 11.1377C13.6798 11.2628 13.5102 11.333 13.3334 11.333H2.66675C2.48994 11.333 2.32037 11.2628 2.19534 11.1377C2.07032 11.0127 2.00008 10.8432 2.00008 10.6663V5.33301C2.00008 5.1562 2.07032 4.98663 2.19534 4.8616C2.32037 4.73658 2.48994 4.66634 2.66675 4.66634H13.3334C13.5102 4.66634 13.6798 4.73658 13.8048 4.8616C13.9298 4.98663 14.0001 5.1562 14.0001 5.33301V10.6663ZM8.00008 5.99967C7.60452 5.99967 7.21784 6.11697 6.88894 6.33674C6.56004 6.5565 6.3037 6.86886 6.15232 7.23431C6.00095 7.59976 5.96134 8.00189 6.03851 8.38986C6.11568 8.77782 6.30616 9.13418 6.58587 9.41389C6.86557 9.69359 7.22194 9.88408 7.6099 9.96125C7.99786 10.0384 8.4 9.99881 8.76545 9.84743C9.1309 9.69606 9.44326 9.43971 9.66302 9.11082C9.88278 8.78192 10.0001 8.39524 10.0001 7.99967C10.0001 7.46924 9.78937 6.96053 9.41429 6.58546C9.03922 6.21039 8.53051 5.99967 8.00008 5.99967ZM8.00008 8.66634C7.86823 8.66634 7.73933 8.62724 7.6297 8.55399C7.52007 8.48073 7.43462 8.37661 7.38416 8.2548C7.3337 8.13298 7.3205 7.99894 7.34622 7.86961C7.37195 7.74029 7.43544 7.62151 7.52868 7.52827C7.62191 7.43504 7.7407 7.37154 7.87002 7.34582C7.99934 7.32009 8.13339 7.3333 8.2552 7.38375C8.37702 7.43421 8.48114 7.51966 8.55439 7.62929C8.62765 7.73893 8.66675 7.86782 8.66675 7.99967C8.66675 8.17649 8.59651 8.34605 8.47149 8.47108C8.34646 8.5961 8.17689 8.66634 8.00008 8.66634Z" fill="#4F5665"/>
</svg>
