<svg width="16" height="16" viewBox="0 0 16 16" fill="none" xmlns="http://www.w3.org/2000/svg">
<path d="M6.97329 4.00026L7.33329 3.60692V6.00026C7.33329 6.17707 7.40353 6.34664 7.52855 6.47166C7.65358 6.59669 7.82315 6.66692 7.99996 6.66692C8.17677 6.66692 8.34634 6.59669 8.47136 6.47166C8.59639 6.34664 8.66663 6.17707 8.66663 6.00026V3.60692L9.02663 3.97359C9.08714 4.04194 9.16105 4.09713 9.24377 4.13574C9.32649 4.17436 9.41625 4.19557 9.50751 4.19807C9.59876 4.20057 9.68956 4.18431 9.77427 4.15028C9.85897 4.11625 9.93579 4.06519 9.99996 4.00026C10.0624 3.93828 10.112 3.86455 10.1459 3.78331C10.1797 3.70207 10.1972 3.61493 10.1972 3.52692C10.1972 3.43892 10.1797 3.35178 10.1459 3.27054C10.112 3.1893 10.0624 3.11557 9.99996 3.05359L8.47329 1.52692C8.40989 1.46623 8.33513 1.41865 8.25329 1.38692C8.09098 1.32024 7.90893 1.32024 7.74663 1.38692C7.66479 1.41865 7.59003 1.46623 7.52663 1.52692L5.99996 3.02692C5.87089 3.156 5.79838 3.33105 5.79838 3.51359C5.79838 3.69613 5.87089 3.87118 5.99996 4.00026C6.12903 4.12933 6.30409 4.20184 6.48663 4.20184C6.66916 4.20184 6.84422 4.12933 6.97329 4.00026ZM7.99996 8.00026C7.6044 8.00026 7.21772 8.11755 6.88882 8.33732C6.55992 8.55708 6.30358 8.86944 6.1522 9.23489C6.00082 9.60034 5.96122 10.0025 6.03839 10.3904C6.11556 10.7784 6.30604 11.1348 6.58575 11.4145C6.86545 11.6942 7.22182 11.8847 7.60978 11.9618C7.99774 12.039 8.39987 11.9994 8.76533 11.848C9.13078 11.6966 9.44314 11.4403 9.6629 11.1114C9.88266 10.7825 9.99996 10.3958 9.99996 10.0003C9.99996 9.46982 9.78925 8.96112 9.41417 8.58604C9.0391 8.21097 8.53039 8.00026 7.99996 8.00026ZM7.99996 10.6669C7.8681 10.6669 7.73921 10.6278 7.62958 10.5546C7.51995 10.4813 7.4345 10.3772 7.38404 10.2554C7.33358 10.1336 7.32038 9.99952 7.3461 9.8702C7.37183 9.74088 7.43532 9.62209 7.52855 9.52885C7.62179 9.43562 7.74058 9.37212 7.8699 9.3464C7.99922 9.32068 8.13326 9.33388 8.25508 9.38434C8.3769 9.4348 8.48102 9.52024 8.55427 9.62988C8.62753 9.73951 8.66663 9.8684 8.66663 10.0003C8.66663 10.1771 8.59639 10.3466 8.47136 10.4717C8.34634 10.5967 8.17677 10.6669 7.99996 10.6669ZM3.33329 10.0003C3.33329 10.1321 3.37239 10.261 3.44565 10.3706C3.5189 10.4803 3.62302 10.5657 3.74484 10.6162C3.86665 10.6666 4.0007 10.6798 4.13002 10.6541C4.25934 10.6284 4.37813 10.5649 4.47136 10.4717C4.5646 10.3784 4.62809 10.2596 4.65382 10.1303C4.67954 10.001 4.66634 9.86695 4.61588 9.74513C4.56542 9.62332 4.47997 9.5192 4.37034 9.44594C4.26071 9.37269 4.13181 9.33359 3.99996 9.33359C3.82315 9.33359 3.65358 9.40383 3.52855 9.52885C3.40353 9.65388 3.33329 9.82345 3.33329 10.0003ZM12.6666 10.0003C12.6666 9.8684 12.6275 9.73951 12.5543 9.62988C12.481 9.52024 12.3769 9.4348 12.2551 9.38434C12.1333 9.33388 11.9992 9.32068 11.8699 9.3464C11.7406 9.37212 11.6218 9.43562 11.5286 9.52885C11.4353 9.62209 11.3718 9.74088 11.3461 9.8702C11.3204 9.99952 11.3336 10.1336 11.384 10.2554C11.4345 10.3772 11.5199 10.4813 11.6296 10.5546C11.7392 10.6278 11.8681 10.6669 12 10.6669C12.1768 10.6669 12.3463 10.5967 12.4714 10.4717C12.5964 10.3466 12.6666 10.1771 12.6666 10.0003ZM13.3333 5.33359H10.6666C10.4898 5.33359 10.3202 5.40383 10.1952 5.52885C10.0702 5.65388 9.99996 5.82345 9.99996 6.00026C9.99996 6.17707 10.0702 6.34664 10.1952 6.47166C10.3202 6.59669 10.4898 6.66692 10.6666 6.66692H13.3333C13.5101 6.66692 13.6797 6.73716 13.8047 6.86219C13.9297 6.98721 14 7.15678 14 7.33359V12.6669C14 12.8437 13.9297 13.0133 13.8047 13.1383C13.6797 13.2634 13.5101 13.3336 13.3333 13.3336H2.66663C2.48981 13.3336 2.32025 13.2634 2.19522 13.1383C2.0702 13.0133 1.99996 12.8437 1.99996 12.6669V7.33359C1.99996 7.15678 2.0702 6.98721 2.19522 6.86219C2.32025 6.73716 2.48981 6.66692 2.66663 6.66692H5.33329C5.5101 6.66692 5.67967 6.59669 5.8047 6.47166C5.92972 6.34664 5.99996 6.17707 5.99996 6.00026C5.99996 5.82345 5.92972 5.65388 5.8047 5.52885C5.67967 5.40383 5.5101 5.33359 5.33329 5.33359H2.66663C2.13619 5.33359 1.62749 5.5443 1.25241 5.91938C0.87734 6.29445 0.666626 6.80316 0.666626 7.33359V12.6669C0.666626 13.1974 0.87734 13.7061 1.25241 14.0811C1.62749 14.4562 2.13619 14.6669 2.66663 14.6669H13.3333C13.8637 14.6669 14.3724 14.4562 14.7475 14.0811C15.1226 13.7061 15.3333 13.1974 15.3333 12.6669V7.33359C15.3333 6.80316 15.1226 6.29445 14.7475 5.91938C14.3724 5.5443 13.8637 5.33359 13.3333 5.33359Z" fill="white"/>
</svg>
