<svg width="16" height="16" viewBox="0 0 16 16" fill="none" xmlns="http://www.w3.org/2000/svg">
<path fill-rule="evenodd" clip-rule="evenodd" d="M13.0025 1.38454C13.4592 1.25169 13.9539 1.37984 14.2892 1.72136C14.6246 2.06221 14.7486 2.55939 14.6119 3.01967L13.7792 5.82093C13.6999 6.0873 13.4225 6.23827 13.1572 6.15909C12.8925 6.07925 12.7419 5.79879 12.8212 5.53309L13.6539 2.73116C13.7006 2.57415 13.6172 2.46814 13.5792 2.42989C13.5412 2.39098 13.4345 2.30644 13.2805 2.35139L2.55283 5.47069C2.38216 5.52034 2.34483 5.66325 2.33683 5.7223C2.32949 5.78134 2.32683 5.92895 2.47883 6.02289L4.73624 7.41178C4.97158 7.55671 5.04625 7.86669 4.90158 8.10421C4.80758 8.25853 4.64357 8.34441 4.4749 8.34441C4.38623 8.34441 4.29623 8.32093 4.21489 8.27061L1.95748 6.88105C1.51013 6.60595 1.27546 6.11079 1.34546 5.58811C1.41546 5.06476 1.77214 4.64943 2.27549 4.50316L13.0025 1.38454ZM12.0187 8.2325C12.0987 7.96546 12.3767 7.81382 12.6414 7.89433C12.9061 7.97418 13.0567 8.25464 12.9774 8.52101L11.4293 13.7304C11.2793 14.2342 10.8647 14.5885 10.3466 14.6549C10.2886 14.663 10.2313 14.6663 10.174 14.6663C9.72195 14.6663 9.3086 14.4342 9.06793 14.0356L6.3345 9.50934C6.21516 9.31073 6.24516 9.05577 6.4085 8.89205L10.2893 4.98639C10.4846 4.7898 10.8007 4.7898 10.996 4.98639C11.1913 5.18298 11.1913 5.50169 10.996 5.69828L7.3932 9.32482L9.92262 13.513C10.0146 13.6653 10.1593 13.6639 10.2193 13.6572C10.278 13.6492 10.42 13.6129 10.4706 13.4425L12.0187 8.2325Z" fill="white"/>
</svg>
